<svg xmlns="http://www.w3.org/2000/svg" viewBox="0 0 64 64" role="img" aria-label="compute.world binary earth">
  <title>compute.world</title>
  <style>
    .bg { fill: #F3F5F2; }
    .fg { fill: #1B222A; stroke: #1B222A; }
    text { fill: #1B222A; font-family: ui-monospace, SFMono-Regular, Menlo, Consolas, monospace; font-size: 4.6px; font-weight: 700; text-anchor: middle; dominant-baseline: middle; }
    @media (prefers-color-scheme: dark) {
      .bg { fill: #0F1216; }
      .fg { fill: #E9EDF1; stroke: #E9EDF1; }
      text { fill: #E9EDF1; }
    }
  </style>
  <rect class="bg" width="64" height="64" rx="14"/>
  <circle class="fg" cx="32" cy="32" r="27" fill="none" stroke-width="1.35"/>
  <ellipse class="fg" cx="32" cy="32" rx="13" ry="27" fill="none" stroke-width="0.55" opacity=".55"/>
  <ellipse class="fg" cx="32" cy="32" rx="22" ry="27" fill="none" stroke-width="0.45" opacity=".4"/>
  <line class="fg" x1="5.2" y1="32" x2="58.8" y2="32" stroke-width="0.45" opacity=".4"/>
  <line class="fg" x1="8.8" y1="20" x2="55.2" y2="20" stroke-width="0.4" opacity=".28"/>
  <line class="fg" x1="8.8" y1="44" x2="55.2" y2="44" stroke-width="0.4" opacity=".28"/>
  <text x="28.5" y="50.5">1</text>
    <text x="22.3" y="50.5">1</text>
    <text x="18.0" y="50.5">1</text>
    <text x="16.4" y="50.5">1</text>
    <text x="18.0" y="50.5">1</text>
    <text x="22.3" y="50.5">1</text>
    <text x="28.5" y="50.5">0</text>
    <text x="35.5" y="50.5">0</text>
    <text x="41.7" y="50.5">0</text>
    <text x="46.0" y="50.5">0</text>
    <text x="47.6" y="50.5">1</text>
    <text x="46.0" y="50.5">0</text>
    <text x="41.7" y="50.5">0</text>
    <text x="35.5" y="50.5">0</text>
    <text x="28.6" y="47.6">0</text>
    <text x="22.2" y="47.6">1</text>
    <text x="17.2" y="47.6">1</text>
    <text x="14.2" y="47.6">1</text>
    <text x="13.5" y="47.6">1</text>
    <text x="15.4" y="47.6">1</text>
    <text x="19.5" y="47.6">0</text>
    <text x="25.3" y="47.6">0</text>
    <text x="32.0" y="47.6">0</text>
    <text x="38.7" y="47.6">1</text>
    <text x="44.5" y="47.6">0</text>
    <text x="48.6" y="47.6">0</text>
    <text x="50.5" y="47.6">0</text>
    <text x="49.8" y="47.6">0</text>
    <text x="46.8" y="47.6">1</text>
    <text x="41.8" y="47.6">1</text>
    <text x="35.4" y="47.6">0</text>
    <text x="28.6" y="44.1">0</text>
    <text x="22.0" y="44.1">1</text>
    <text x="16.6" y="44.1">1</text>
    <text x="12.8" y="44.1">1</text>
    <text x="11.1" y="44.1">1</text>
    <text x="11.7" y="44.1">1</text>
    <text x="14.5" y="44.1">1</text>
    <text x="19.1" y="44.1">0</text>
    <text x="25.2" y="44.1">0</text>
    <text x="32.0" y="44.1">0</text>
    <text x="38.8" y="44.1">1</text>
    <text x="44.9" y="44.1">1</text>
    <text x="49.5" y="44.1">1</text>
    <text x="52.3" y="44.1">1</text>
    <text x="52.9" y="44.1">1</text>
    <text x="51.2" y="44.1">0</text>
    <text x="47.4" y="44.1">0</text>
    <text x="42.0" y="44.1">1</text>
    <text x="35.4" y="44.1">1</text>
    <text x="28.6" y="40.3">0</text>
    <text x="22.1" y="40.3">1</text>
    <text x="16.5" y="40.3">1</text>
    <text x="12.3" y="40.3">1</text>
    <text x="9.8" y="40.3">1</text>
    <text x="9.3" y="40.3">1</text>
    <text x="10.8" y="40.3">1</text>
    <text x="14.2" y="40.3">1</text>
    <text x="19.2" y="40.3">0</text>
    <text x="25.3" y="40.3">0</text>
    <text x="32.0" y="40.3">0</text>
    <text x="38.7" y="40.3">1</text>
    <text x="44.8" y="40.3">1</text>
    <text x="49.8" y="40.3">1</text>
    <text x="53.2" y="40.3">1</text>
    <text x="54.7" y="40.3">1</text>
    <text x="54.2" y="40.3">1</text>
    <text x="51.7" y="40.3">1</text>
    <text x="47.5" y="40.3">0</text>
    <text x="41.9" y="40.3">1</text>
    <text x="35.4" y="40.3">0</text>
    <text x="28.6" y="36.2">0</text>
    <text x="22.1" y="36.2">1</text>
    <text x="16.4" y="36.2">1</text>
    <text x="12.0" y="36.2">1</text>
    <text x="9.1" y="36.2">1</text>
    <text x="8.2" y="36.2">1</text>
    <text x="9.1" y="36.2">1</text>
    <text x="12.0" y="36.2">1</text>
    <text x="16.4" y="36.2">0</text>
    <text x="22.1" y="36.2">0</text>
    <text x="28.6" y="36.2">0</text>
    <text x="35.4" y="36.2">1</text>
    <text x="41.9" y="36.2">1</text>
    <text x="47.6" y="36.2">1</text>
    <text x="52.0" y="36.2">1</text>
    <text x="54.9" y="36.2">1</text>
    <text x="55.8" y="36.2">1</text>
    <text x="54.9" y="36.2">1</text>
    <text x="52.0" y="36.2">1</text>
    <text x="47.6" y="36.2">1</text>
    <text x="41.9" y="36.2">0</text>
    <text x="35.4" y="36.2">1</text>
    <text x="28.6" y="32.0">1</text>
    <text x="21.9" y="32.0">1</text>
    <text x="16.2" y="32.0">1</text>
    <text x="11.6" y="32.0">1</text>
    <text x="8.8" y="32.0">1</text>
    <text x="7.8" y="32.0">1</text>
    <text x="8.8" y="32.0">1</text>
    <text x="11.6" y="32.0">1</text>
    <text x="16.2" y="32.0">0</text>
    <text x="21.9" y="32.0">0</text>
    <text x="28.6" y="32.0">1</text>
    <text x="35.4" y="32.0">1</text>
    <text x="42.1" y="32.0">1</text>
    <text x="47.8" y="32.0">1</text>
    <text x="52.4" y="32.0">1</text>
    <text x="55.2" y="32.0">1</text>
    <text x="56.2" y="32.0">1</text>
    <text x="55.2" y="32.0">1</text>
    <text x="52.4" y="32.0">1</text>
    <text x="47.8" y="32.0">1</text>
    <text x="42.1" y="32.0">0</text>
    <text x="35.4" y="32.0">0</text>
    <text x="28.6" y="27.8">0</text>
    <text x="22.1" y="27.8">1</text>
    <text x="16.4" y="27.8">1</text>
    <text x="12.0" y="27.8">1</text>
    <text x="9.1" y="27.8">1</text>
    <text x="8.2" y="27.8">1</text>
    <text x="9.1" y="27.8">1</text>
    <text x="12.0" y="27.8">1</text>
    <text x="16.4" y="27.8">0</text>
    <text x="22.1" y="27.8">1</text>
    <text x="28.6" y="27.8">1</text>
    <text x="35.4" y="27.8">1</text>
    <text x="41.9" y="27.8">1</text>
    <text x="47.6" y="27.8">1</text>
    <text x="52.0" y="27.8">1</text>
    <text x="54.9" y="27.8">1</text>
    <text x="55.8" y="27.8">1</text>
    <text x="54.9" y="27.8">1</text>
    <text x="52.0" y="27.8">1</text>
    <text x="47.6" y="27.8">1</text>
    <text x="41.9" y="27.8">0</text>
    <text x="35.4" y="27.8">0</text>
    <text x="28.6" y="23.7">0</text>
    <text x="22.1" y="23.7">0</text>
    <text x="16.5" y="23.7">1</text>
    <text x="12.3" y="23.7">1</text>
    <text x="9.8" y="23.7">1</text>
    <text x="9.3" y="23.7">1</text>
    <text x="10.8" y="23.7">1</text>
    <text x="14.2" y="23.7">0</text>
    <text x="19.2" y="23.7">1</text>
    <text x="25.3" y="23.7">1</text>
    <text x="32.0" y="23.7">1</text>
    <text x="38.7" y="23.7">1</text>
    <text x="44.8" y="23.7">1</text>
    <text x="49.8" y="23.7">1</text>
    <text x="53.2" y="23.7">1</text>
    <text x="54.7" y="23.7">1</text>
    <text x="54.2" y="23.7">1</text>
    <text x="51.7" y="23.7">1</text>
    <text x="47.5" y="23.7">1</text>
    <text x="41.9" y="23.7">0</text>
    <text x="35.4" y="23.7">0</text>
    <text x="28.6" y="19.9">0</text>
    <text x="22.0" y="19.9">0</text>
    <text x="16.6" y="19.9">1</text>
    <text x="12.8" y="19.9">1</text>
    <text x="11.1" y="19.9">1</text>
    <text x="11.7" y="19.9">1</text>
    <text x="14.5" y="19.9">1</text>
    <text x="19.1" y="19.9">1</text>
    <text x="25.2" y="19.9">0</text>
    <text x="32.0" y="19.9">1</text>
    <text x="38.8" y="19.9">1</text>
    <text x="44.9" y="19.9">1</text>
    <text x="49.5" y="19.9">1</text>
    <text x="52.3" y="19.9">1</text>
    <text x="52.9" y="19.9">1</text>
    <text x="51.2" y="19.9">1</text>
    <text x="47.4" y="19.9">1</text>
    <text x="42.0" y="19.9">1</text>
    <text x="35.4" y="19.9">0</text>
    <text x="28.6" y="16.4">0</text>
    <text x="22.2" y="16.4">0</text>
    <text x="17.2" y="16.4">1</text>
    <text x="14.2" y="16.4">1</text>
    <text x="13.5" y="16.4">1</text>
    <text x="15.4" y="16.4">1</text>
    <text x="19.5" y="16.4">1</text>
    <text x="25.3" y="16.4">0</text>
    <text x="32.0" y="16.4">1</text>
    <text x="38.7" y="16.4">1</text>
    <text x="44.5" y="16.4">1</text>
    <text x="48.6" y="16.4">1</text>
    <text x="50.5" y="16.4">1</text>
    <text x="49.8" y="16.4">1</text>
    <text x="46.8" y="16.4">1</text>
    <text x="41.8" y="16.4">1</text>
    <text x="35.4" y="16.4">1</text>
    <text x="28.5" y="13.5">1</text>
    <text x="22.3" y="13.5">1</text>
    <text x="18.0" y="13.5">1</text>
    <text x="16.4" y="13.5">1</text>
    <text x="18.0" y="13.5">1</text>
    <text x="22.3" y="13.5">0</text>
    <text x="28.5" y="13.5">1</text>
    <text x="35.5" y="13.5">1</text>
    <text x="41.7" y="13.5">1</text>
    <text x="46.0" y="13.5">1</text>
    <text x="47.6" y="13.5">1</text>
    <text x="46.0" y="13.5">1</text>
    <text x="41.7" y="13.5">1</text>
    <text x="35.5" y="13.5">0</text>
</svg>
